<svg width="24" height="25" viewBox="0 0 24 25" fill="none" xmlns="http://www.w3.org/2000/svg">
<path d="M11.9992 2.21489C15.204 2.21489 15.5827 2.22644 16.8491 2.28585C18.0189 2.34032 18.6538 2.54002 19.0775 2.70837C19.5952 2.91283 20.0652 3.22615 20.4573 3.62811C20.8495 4.03007 21.155 4.51174 21.3543 5.04208C21.5154 5.4745 21.7136 6.12642 21.7668 7.32464C21.8248 8.62023 21.8377 9.00973 21.8377 12.2908C21.8377 15.5719 21.8248 15.9614 21.7668 17.257C21.7136 18.4502 21.5267 19.1104 21.3543 19.5395C21.155 20.0699 20.8495 20.5515 20.4573 20.9535C20.0652 21.3554 19.5952 21.6688 19.0775 21.8732C18.6538 22.0383 18.0189 22.2413 16.8491 22.2957C15.5827 22.3552 15.204 22.3684 11.9992 22.3684C8.79436 22.3684 8.41571 22.3552 7.15086 22.2957C5.98107 22.2413 5.34461 22.0416 4.92246 21.8732C4.40484 21.6688 3.93481 21.3554 3.54266 20.9535C3.15052 20.5515 2.84497 20.0699 2.64572 19.5395C2.48459 19.1071 2.28479 18.4568 2.23162 17.2586C2.17362 15.9614 2.16234 15.5735 2.16234 12.2908C2.16234 9.00808 2.17362 8.62023 2.23162 7.32464C2.28479 6.12642 2.48137 5.4745 2.64572 5.04208C2.84586 4.51094 3.15264 4.02876 3.54622 3.62675C3.93981 3.22475 4.41141 2.91187 4.93051 2.70837C5.35267 2.54332 5.98912 2.34032 7.15891 2.28585C8.42377 2.22644 8.80403 2.21489 12.0072 2.21489H11.9992ZM12.0072 0C8.74924 0 8.33998 0.0132036 7.06062 0.0726193C6.06501 0.094165 5.08009 0.287788 4.14743 0.645321C3.34889 0.960225 2.62345 1.44269 2.0177 2.06174C1.41195 2.68079 0.939273 3.42274 0.63001 4.23997C0.280313 5.1962 0.0917955 6.20634 0.0725077 7.22726C0.0128904 8.53771 0 8.95527 0 12.2941C0 15.6329 0.0128904 16.0505 0.0725077 17.3626C0.0923101 18.3818 0.28082 19.3903 0.63001 20.3449C0.937936 21.1618 1.4092 21.9037 2.01356 22.5231C2.61792 23.1424 3.34201 23.6254 4.13938 23.9412C5.07194 24.2989 6.05697 24.492 7.05257 24.5123C8.33192 24.5717 8.74119 24.5865 11.9992 24.5865C15.2572 24.5865 15.6665 24.5717 16.9474 24.5123C17.943 24.492 18.9281 24.2989 19.8606 23.9412C20.658 23.6254 21.3821 23.1424 21.9864 22.5231C22.5908 21.9037 23.0621 21.1618 23.37 20.3449C23.7192 19.3903 23.9077 18.3818 23.9275 17.3626C23.9855 16.0505 24 15.6329 24 12.2941C24 8.95527 23.9855 8.53771 23.9275 7.22726C23.9078 6.20745 23.7193 5.19846 23.37 4.24327C23.0616 3.42685 22.5902 2.68539 21.9859 2.06639C21.3815 1.44739 20.6577 0.96449 19.8606 0.648621C18.928 0.291089 17.943 0.097466 16.9474 0.0759202C15.6584 0.0165045 15.2588 0.00330095 11.9992 0.00330095L12.0072 0Z" fill="white"/>
<path d="M11.9997 5.979C10.7812 5.97933 9.59007 6.34976 8.57703 7.04345C7.56399 7.73714 6.7745 8.72294 6.3084 9.8762C5.8423 11.0295 5.72051 12.2984 5.95843 13.5226C6.19636 14.7467 6.78331 15.8711 7.64508 16.7536C8.50684 17.6361 9.60472 18.237 10.7999 18.4804C11.9951 18.7238 13.2338 18.5987 14.3596 18.121C15.4854 17.6432 16.4476 16.8343 17.1246 15.7965C17.8015 14.7586 18.1628 13.5385 18.1628 12.2903C18.1628 11.4613 18.0034 10.6405 17.6937 9.87468C17.3839 9.10885 16.9299 8.41303 16.3576 7.82695C15.7853 7.24087 15.1059 6.77602 14.3581 6.45895C13.6104 6.14187 12.809 5.97879 11.9997 5.979ZM11.9997 16.3883C11.2085 16.3883 10.4349 16.148 9.77702 15.6977C9.11909 15.2474 8.6063 14.6073 8.30349 13.8585C8.00068 13.1097 7.92145 12.2857 8.07582 11.4908C8.23019 10.6958 8.61123 9.96565 9.17075 9.39253C9.73027 8.81941 10.4431 8.42911 11.2192 8.27098C11.9953 8.11286 12.7997 8.19401 13.5308 8.50418C14.2618 8.81436 14.8867 9.33961 15.3263 10.0135C15.7659 10.6874 16.0005 11.4798 16.0005 12.2903C16.0005 13.3771 15.579 14.4195 14.8287 15.188C14.0784 15.9566 13.0608 16.3883 11.9997 16.3883Z" fill="white"/>
<path d="M18.4054 7.20635C19.201 7.20635 19.8459 6.54575 19.8459 5.73086C19.8459 4.91597 19.201 4.25537 18.4054 4.25537C17.6098 4.25537 16.9648 4.91597 16.9648 5.73086C16.9648 6.54575 17.6098 7.20635 18.4054 7.20635Z" fill="white"/>
</svg>
