<svg width="90" height="95" viewBox="0 0 90 95" fill="none" xmlns="http://www.w3.org/2000/svg">
<path fill-rule="evenodd" clip-rule="evenodd" d="M63.1048 66.875V48.5282C61.996 50.4637 59.9194 51.754 57.5202 51.754C54.4758 51.754 51.9355 49.6371 51.25 46.8145C50.5847 49.6573 48.0242 51.754 44.9798 51.754C41.9355 51.754 39.3952 49.6371 38.7097 46.8145C38.0444 49.6573 35.4839 51.754 32.4395 51.754C30.0605 51.754 27.9637 50.4637 26.8548 48.5282V66.875H0L45 0L90 66.875H63.1048ZM45 35.4436C49.4556 35.4436 51.6935 33.8508 51.6935 33.8508C51.0685 33.246 49.3952 30.3629 47.8831 27.621C46.371 24.879 45.0202 22.2984 45.0202 22.2984C45.0202 22.2984 43.6694 24.879 42.1573 27.621C40.6452 30.3629 38.9718 33.246 38.3468 33.8508C38.3064 33.8508 40.5444 35.4436 45 35.4436Z" fill="#47235C"/>
<path d="M64.3338 75.2821C65.4225 74.4958 66.8741 74.395 68.1241 74.7176C68.8096 74.8789 69.3136 75.4031 69.7169 75.9474C69.7975 75.5845 69.8782 75.2015 69.9588 74.8386C70.5233 74.8587 71.0878 74.8587 71.6322 74.8587C71.6322 76.6329 71.612 78.4273 71.6524 80.2015C70.9467 80.2015 70.2612 80.2015 69.5757 80.2015C69.5354 79.1531 69.7169 78.024 69.2532 77.0361C68.6887 75.8869 67.0153 75.6248 66.0274 76.3708C65.362 76.9152 65.1403 77.8023 65.1604 78.6289C65.1604 81.1894 65.1403 83.7498 65.1604 86.2902C65.1201 87.0966 65.483 87.9837 66.2895 88.266C67.2572 88.6289 68.6282 88.5886 69.2532 87.641C69.7572 86.7942 69.5757 85.7458 69.6161 84.8184C70.3016 84.8184 70.987 84.8184 71.6725 84.8184C71.6322 85.9474 71.8338 87.1974 71.1887 88.2256C70.5233 89.3748 69.1322 89.7982 67.8822 89.8789C66.5717 89.9394 65.0999 89.8184 64.0717 88.891C63.3862 88.2256 63.0435 87.2781 63.0636 86.3305C63.0435 83.6289 63.0636 80.9273 63.0636 78.2458C63.0838 77.1168 63.4266 75.9474 64.3338 75.2821Z" fill="#47235C"/>
<path d="M30.9473 74.8588C32.4392 74.8588 33.9311 74.8588 35.4231 74.8588C35.9674 74.8588 36.4916 75.0605 37.036 75.1814C39.0118 74.5967 41.0884 74.9596 43.1045 74.8588C43.1247 76.25 43.1045 77.6411 43.1247 79.0524C42.4594 79.0524 41.7739 79.0524 41.1086 79.0524C41.1086 78.125 41.1086 77.1774 41.0884 76.25C40.0803 76.25 39.0924 76.25 38.0844 76.25C38.0844 80.2822 38.0844 84.3145 38.0844 88.3468C38.8102 88.3468 39.5561 88.3468 40.2819 88.3468C40.2819 88.8105 40.2819 89.2742 40.2819 89.7379C39.294 89.758 38.2658 89.8387 37.3182 89.4556C37.036 89.2943 36.7537 89.4758 36.4916 89.5564C35.6045 89.8588 34.6569 89.7379 33.7497 89.758C33.7497 89.2943 33.7497 88.8306 33.7497 88.3468C34.4957 88.3468 35.2416 88.3468 35.9876 88.3468C35.9876 84.3145 35.9876 80.2822 35.9876 76.25C34.9795 76.25 33.9715 76.25 32.9836 76.25C32.9836 77.1774 32.9836 78.125 32.9836 79.0524C32.3182 79.0524 31.6328 79.0524 30.9674 79.0524C30.9473 77.6411 30.9473 76.25 30.9473 74.8588Z" fill="#47235C"/>
<path d="M46.4904 74.8386C47.3775 74.7983 48.2646 74.8991 49.1315 75.1612C49.9985 74.9193 50.9057 74.7983 51.813 74.8185C51.813 75.2822 51.813 75.7459 51.813 76.2297C51.2888 76.2297 50.7444 76.2297 50.2202 76.2297C50.2202 78.1652 50.2404 80.1007 50.2202 82.016C50.1194 83.5684 49.9783 85.1209 49.8573 86.6733C51.5912 82.9031 53.2444 79.0926 54.938 75.3225C55.0589 75.141 55.1194 74.7781 55.4218 74.8386C56.571 74.8386 57.7404 74.8588 58.8896 74.8386C58.8896 75.3023 58.9097 75.766 58.9097 76.2297C58.3654 76.2297 57.8009 76.2297 57.2565 76.2297C57.2767 80.262 57.2565 84.2943 57.2565 88.3064C57.8009 88.3064 58.3452 88.3265 58.9097 88.3265C58.9097 88.7902 58.9097 89.2539 58.9097 89.7176C57.9823 89.7781 57.0751 89.6975 56.2081 89.3547C55.3614 89.6572 54.4541 89.7983 53.5468 89.6975C53.5468 89.2338 53.5468 88.7902 53.5468 88.3265C54.0912 88.3265 54.6154 88.3265 55.1597 88.3265C55.1799 86.5725 55.1597 84.7983 55.1799 83.0443C55.2404 81.4717 55.4218 79.9193 55.4823 78.3467C53.688 82.0967 51.9944 85.887 50.2807 89.6773C49.1517 89.7781 48.0226 89.7176 46.9138 89.7176C46.9138 89.2539 46.9138 88.7902 46.9138 88.3467C47.3372 88.3467 47.7606 88.3265 48.1839 88.3265C48.1839 84.2943 48.1839 80.2822 48.1839 76.2499C47.6194 76.2499 47.0549 76.2499 46.5106 76.2297C46.4702 75.766 46.4904 75.3023 46.4904 74.8386Z" fill="#47235C"/>
<path d="M75.5042 74.8588C76.9961 74.8588 78.4881 74.8387 79.98 74.8588C80.5445 74.8387 81.0485 75.0605 81.5727 75.1814C83.5485 74.5967 85.6252 74.9596 87.6413 74.8588C87.6413 76.25 87.6413 77.6613 87.6413 79.0524C86.976 79.0524 86.2905 79.0524 85.6252 79.0524C85.6252 78.125 85.605 77.1976 85.6252 76.25C84.6171 76.25 83.609 76.2298 82.601 76.25C82.6211 80.2822 82.5808 84.3145 82.6211 88.3266C83.3469 88.3266 84.0929 88.3266 84.8187 88.3266C84.8187 88.7903 84.8187 89.2338 84.7985 89.6976C83.851 89.7379 82.8631 89.7984 81.976 89.4758C81.4921 89.2137 81.0284 89.5968 80.5445 89.6572C79.7985 89.7782 79.0324 89.7177 78.2663 89.7379C78.2663 89.2742 78.2663 88.8105 78.2663 88.3266C79.0123 88.3266 79.7582 88.3266 80.5042 88.3266C80.5042 84.2943 80.484 80.2621 80.5042 76.25C79.4961 76.25 78.4881 76.25 77.5002 76.25C77.5002 77.1774 77.5002 78.125 77.5002 79.0524C76.8348 79.0524 76.1494 79.0524 75.4639 79.0524C75.5042 77.6411 75.484 76.25 75.5042 74.8588Z" fill="#47235C"/>
<path d="M26.9146 78.004C26.9146 77.0564 26.6323 76.0484 25.9267 75.4032C24.8985 74.5363 23.4267 74.4556 22.1565 74.6572C21.2493 74.8387 20.5436 75.5242 20.0396 76.25C19.9993 75.7863 19.9791 75.3024 19.959 74.8387C18.8098 74.8387 17.6606 74.8387 16.4912 74.8387C16.4912 75.3024 16.4912 75.7661 16.4912 76.2298C17.0154 76.2298 17.5598 76.2298 18.084 76.2298C18.084 81.8145 18.084 87.4193 18.084 93.004C17.5598 93.004 17.0154 93.004 16.4912 93.004C16.4912 93.4677 16.4912 93.9314 16.4912 94.3951C17.3783 94.4355 18.2654 94.3951 19.1122 94.0524C19.959 94.3347 20.846 94.4556 21.7331 94.4153C21.7331 93.9516 21.713 93.4879 21.713 93.0242C21.209 93.0242 20.7049 93.0242 20.1807 93.0242C20.1807 91.5322 20.2009 90.0201 20.1606 88.5282C20.6243 89.1129 21.2291 89.6371 21.9952 89.7782C23.3057 89.9798 24.7775 89.8589 25.8259 88.9718C26.6525 88.2661 26.9348 87.1371 26.9146 86.0887C26.9146 83.3871 26.9348 80.7056 26.9146 78.004ZM24.7977 85.6855C24.7977 86.4516 24.6767 87.2984 24.1122 87.883C23.3864 88.5685 22.2372 88.6492 21.3501 88.246C20.4831 87.8226 20.1606 86.7943 20.1807 85.8871C20.1807 83.4072 20.1606 80.9072 20.1807 78.4274C20.1606 77.4193 20.7251 76.3306 21.7735 76.0685C22.6202 75.8468 23.6686 75.9476 24.2735 76.6734C24.6767 77.1572 24.8178 77.8024 24.7977 78.4274C24.7977 80.8266 24.7977 83.246 24.7977 85.6855Z" fill="#47235C"/>
<path d="M12.0961 88.3467C12.1162 84.9596 12.0961 81.5927 12.0961 78.2056C12.1162 77.1773 11.7735 76.1088 10.9872 75.4032C9.25333 74.0927 6.41059 74.2136 5.03962 75.9878C5.01946 75.6048 4.97914 75.2217 4.93881 74.8386C4.45494 74.8386 3.97107 74.8386 3.4872 74.8386C3.46704 76.5322 3.4872 78.2459 3.4872 79.9394C4.07188 79.9394 4.67672 79.9193 5.26139 79.9394C5.26139 79.0927 5.18075 78.2459 5.40252 77.4193C5.90655 75.5443 9.07188 75.3427 9.81784 77.1169C10.1404 78.1854 9.9993 79.3144 9.9993 80.4031C7.8622 80.9878 5.50333 81.3306 3.78962 82.8427C2.31784 84.0523 1.8743 86.3306 2.78155 88.004C3.30575 88.9919 4.33397 89.637 5.40252 89.8588C6.65252 90.1007 8.00333 89.9999 9.1122 89.3951C9.69688 89.0927 10.0396 88.5282 10.4428 88.0241C10.4428 88.5886 10.4428 89.1532 10.4428 89.7378C11.5316 89.7177 12.6203 89.7378 13.709 89.7177C13.709 89.254 13.709 88.7902 13.709 88.3265C13.1848 88.3467 12.6404 88.3467 12.0961 88.3467ZM9.75736 86.8346C9.17268 88.6088 6.67268 89.0523 5.30172 87.9838C4.39446 87.1975 4.29365 85.8265 4.67672 84.758C5.05978 83.6491 6.08801 82.9233 7.15655 82.5806C8.10414 82.2782 9.09204 82.0564 10.0598 81.8548C9.95897 83.4878 10.2614 85.2217 9.75736 86.8346Z" fill="#47235C"/>
</svg>
