<svg width="447" height="332" viewBox="0 0 447 332" fill="none" xmlns="http://www.w3.org/2000/svg">
<path fill-rule="evenodd" clip-rule="evenodd" d="M313 331.7V240.7C307.5 250.3 297.2 256.7 285.3 256.7C270.2 256.7 257.6 246.2 254.2 232.2C250.9 246.3 238.2 256.7 223.1 256.7C208 256.7 195.4 246.2 192 232.2C188.7 246.3 176 256.7 160.9 256.7C149.1 256.7 138.7 250.3 133.2 240.7V331.7H0L223.2 0L446.4 331.7H313ZM223.2 175.8C245.3 175.8 256.4 167.9 256.4 167.9C253.3 164.9 245 150.6 237.5 137C230 123.4 223.3 110.6 223.3 110.6C223.3 110.6 216.6 123.4 209.1 137C201.6 150.6 193.3 164.9 190.2 167.9C190 167.9 201.1 175.8 223.2 175.8Z" fill="white"/>
</svg>
