<svg width="172" height="181" viewBox="0 0 172 181" fill="none" xmlns="http://www.w3.org/2000/svg">
<path fill-rule="evenodd" clip-rule="evenodd" d="M120.6 127.806V92.7428C118.481 96.4418 114.513 98.9077 109.927 98.9077C104.109 98.9077 99.2545 94.862 97.9444 89.4678C96.6729 94.9005 91.7796 98.9077 85.9615 98.9077C80.1434 98.9077 75.2885 94.862 73.9785 89.4678C72.707 94.9005 67.8136 98.9077 61.9955 98.9077C57.4489 98.9077 53.4418 96.4418 51.3226 92.7428V127.806H0L86 0L172 127.806H120.6ZM86 67.7366C94.5152 67.7366 98.7921 64.6927 98.7921 64.6927C97.5977 63.5367 94.3996 58.0269 91.5099 52.7867C88.6201 47.5466 86.0385 42.6147 86.0385 42.6147C86.0385 42.6147 83.457 47.5466 80.5672 52.7867C77.6774 58.0269 74.4794 63.5367 73.2849 64.6927C73.2079 64.6927 77.4848 67.7366 86 67.7366Z" fill="white"/>
<path d="M122.948 143.871C125.029 142.369 127.803 142.176 130.192 142.792C131.502 143.101 132.465 144.102 133.236 145.143C133.39 144.449 133.544 143.717 133.698 143.024C134.777 143.062 135.856 143.062 136.896 143.062C136.896 146.453 136.858 149.882 136.935 153.273C135.586 153.273 134.276 153.273 132.966 153.273C132.889 151.269 133.236 149.111 132.35 147.223C131.271 145.027 128.073 144.526 126.185 145.952C124.914 146.992 124.49 148.688 124.528 150.267C124.528 155.161 124.49 160.054 124.528 164.909C124.451 166.45 125.145 168.145 126.686 168.685C128.535 169.378 131.155 169.301 132.35 167.49C133.313 165.872 132.966 163.869 133.043 162.096C134.353 162.096 135.664 162.096 136.974 162.096C136.896 164.254 137.282 166.643 136.049 168.608C134.777 170.804 132.119 171.613 129.73 171.767C127.225 171.883 124.413 171.652 122.448 169.879C121.138 168.608 120.483 166.797 120.521 164.986C120.483 159.823 120.521 154.66 120.521 149.535C120.56 147.378 121.215 145.143 122.948 143.871Z" fill="white"/>
<path d="M59.1445 143.063C61.9958 143.063 64.847 143.063 67.6983 143.063C68.7386 143.063 69.7404 143.448 70.7807 143.679C74.5567 142.562 78.5254 143.255 82.3784 143.063C82.4169 145.721 82.3784 148.38 82.4169 151.077C81.1454 151.077 79.8354 151.077 78.5639 151.077C78.5639 149.304 78.5639 147.494 78.5254 145.721C76.5988 145.721 74.7108 145.721 72.7843 145.721C72.7843 153.427 72.7843 161.133 72.7843 168.839C74.1714 168.839 75.597 168.839 76.9841 168.839C76.9841 169.726 76.9841 170.612 76.9841 171.498C75.0961 171.537 73.1311 171.691 71.3202 170.959C70.7807 170.65 70.2413 170.997 69.7404 171.151C68.0451 171.729 66.2341 171.498 64.5003 171.537C64.5003 170.65 64.5003 169.764 64.5003 168.839C65.9259 168.839 67.3515 168.839 68.7771 168.839C68.7771 161.133 68.7771 153.427 68.7771 145.721C66.8506 145.721 64.9241 145.721 63.0361 145.721C63.0361 147.494 63.0361 149.304 63.0361 151.077C61.7646 151.077 60.4546 151.077 59.1831 151.077C59.1445 148.38 59.1445 145.721 59.1445 143.063Z" fill="white"/>
<path d="M88.8495 143.023C90.5448 142.946 92.2402 143.139 93.897 143.64C95.5538 143.177 97.2877 142.946 99.0215 142.985C99.0215 143.871 99.0215 144.757 99.0215 145.682C98.0197 145.682 96.9794 145.682 95.9776 145.682C95.9776 149.381 96.0161 153.08 95.9776 156.74C95.785 159.707 95.5152 162.674 95.2841 165.641C98.5977 158.435 101.757 151.153 104.994 143.948C105.225 143.601 105.341 142.908 105.918 143.023C108.115 143.023 110.349 143.062 112.546 143.023C112.546 143.909 112.584 144.796 112.584 145.682C111.544 145.682 110.465 145.682 109.425 145.682C109.463 153.388 109.425 161.094 109.425 168.761C110.465 168.761 111.505 168.8 112.584 168.8C112.584 169.686 112.584 170.572 112.584 171.459C110.812 171.574 109.078 171.42 107.421 170.765C105.803 171.343 104.069 171.613 102.335 171.42C102.335 170.534 102.335 169.686 102.335 168.8C103.375 168.8 104.377 168.8 105.418 168.8C105.456 165.448 105.418 162.057 105.456 158.705C105.572 155.7 105.918 152.733 106.034 149.727C102.605 156.894 99.3683 164.138 96.0932 171.382C93.9355 171.574 91.7778 171.459 89.6586 171.459C89.6586 170.572 89.6586 169.686 89.6586 168.839C90.4678 168.839 91.2769 168.8 92.086 168.8C92.086 161.094 92.086 153.426 92.086 145.72C91.0072 145.72 89.9283 145.72 88.888 145.682C88.8109 144.796 88.8495 143.909 88.8495 143.023Z" fill="white"/>
<path d="M144.296 143.063C147.147 143.063 149.998 143.024 152.85 143.063C153.928 143.024 154.892 143.448 155.893 143.679C159.669 142.562 163.638 143.255 167.491 143.063C167.491 145.721 167.491 148.418 167.491 151.077C166.22 151.077 164.91 151.077 163.638 151.077C163.638 149.304 163.6 147.532 163.638 145.721C161.712 145.721 159.785 145.683 157.859 145.721C157.897 153.427 157.82 161.133 157.897 168.801C159.284 168.801 160.71 168.801 162.097 168.801C162.097 169.687 162.097 170.535 162.058 171.421C160.247 171.498 158.359 171.614 156.664 170.997C155.739 170.496 154.853 171.228 153.928 171.344C152.503 171.575 151.039 171.46 149.574 171.498C149.574 170.612 149.574 169.726 149.574 168.801C151 168.801 152.426 168.801 153.851 168.801C153.851 161.095 153.813 153.389 153.851 145.721C151.925 145.721 149.998 145.721 148.11 145.721C148.11 147.494 148.11 149.304 148.11 151.077C146.839 151.077 145.529 151.077 144.219 151.077C144.296 148.38 144.257 145.721 144.296 143.063Z" fill="white"/>
<path d="M51.4359 149.074C51.4359 147.263 50.8965 145.336 49.5479 144.103C47.5828 142.446 44.7701 142.292 42.3427 142.678C40.6088 143.024 39.2602 144.334 38.297 145.722C38.2199 144.835 38.1814 143.911 38.1429 143.024C35.9466 143.024 33.7504 143.024 31.5156 143.024C31.5156 143.911 31.5156 144.797 31.5156 145.683C32.5174 145.683 33.5577 145.683 34.5595 145.683C34.5595 156.356 34.5595 167.067 34.5595 177.74C33.5577 177.74 32.5174 177.74 31.5156 177.74C31.5156 178.627 31.5156 179.513 31.5156 180.399C33.211 180.476 34.9063 180.399 36.5246 179.744C38.1429 180.283 39.8382 180.515 41.5335 180.438C41.5335 179.551 41.495 178.665 41.495 177.779C40.5318 177.779 39.5685 177.779 38.5667 177.779C38.5667 174.928 38.6052 172.038 38.5282 169.187C39.4144 170.304 40.5703 171.306 42.0344 171.575C44.5389 171.961 47.3517 171.73 49.3552 170.034C50.935 168.686 51.4744 166.528 51.4359 164.524C51.4359 159.361 51.4744 154.237 51.4359 149.074ZM47.3902 163.754C47.3902 165.218 47.159 166.836 46.0801 167.954C44.693 169.264 42.4968 169.418 40.8015 168.647C39.1447 167.838 38.5282 165.873 38.5667 164.139C38.5667 159.4 38.5282 154.622 38.5667 149.883C38.5282 147.956 39.607 145.876 41.6106 145.375C43.2289 144.951 45.2325 145.144 46.3884 146.531C47.159 147.455 47.4287 148.688 47.3902 149.883C47.3902 154.468 47.3902 159.092 47.3902 163.754Z" fill="white"/>
<path d="M23.1173 168.839C23.1559 162.366 23.1173 155.932 23.1173 149.459C23.1559 147.494 22.5008 145.451 20.9982 144.103C17.6845 141.598 12.2517 141.83 9.63166 145.22C9.59313 144.488 9.51607 143.756 9.43901 143.024C8.51428 143.024 7.58955 143.024 6.66482 143.024C6.62629 146.261 6.66482 149.536 6.66482 152.772C7.7822 152.772 8.93812 152.734 10.0555 152.772C10.0555 151.154 9.90138 149.536 10.3252 147.956C11.2885 144.373 17.3378 143.987 18.7634 147.378C19.3799 149.42 19.1102 151.578 19.1102 153.658C15.0259 154.776 10.5179 155.431 7.24277 158.321C4.43005 160.632 3.58238 164.986 5.31625 168.184C6.31804 170.072 8.2831 171.305 10.3252 171.729C12.7141 172.192 15.2956 171.999 17.4148 170.843C18.5322 170.265 19.1872 169.186 19.9578 168.223C19.9578 169.302 19.9578 170.381 19.9578 171.498C22.0385 171.46 24.1191 171.498 26.1998 171.46C26.1998 170.573 26.1998 169.687 26.1998 168.801C25.198 168.839 24.1576 168.839 23.1173 168.839ZM18.6478 165.95C17.5304 169.34 12.7526 170.188 10.1326 168.146C8.39869 166.643 8.20604 164.023 8.93812 161.981C9.67019 159.862 11.6352 158.475 13.6774 157.82C15.4883 157.242 17.3763 156.818 19.2257 156.433C19.0331 159.554 19.6111 162.867 18.6478 165.95Z" fill="white"/>
</svg>
