<svg width="447" height="469" viewBox="0 0 447 469" fill="none" xmlns="http://www.w3.org/2000/svg">
<path fill-rule="evenodd" clip-rule="evenodd" d="M313 331.7V240.7C307.5 250.3 297.2 256.7 285.3 256.7C270.2 256.7 257.6 246.2 254.2 232.2C250.9 246.3 238.2 256.7 223.1 256.7C208 256.7 195.4 246.2 192 232.2C188.7 246.3 176 256.7 160.9 256.7C149.1 256.7 138.7 250.3 133.2 240.7V331.7H0L223.2 0L446.4 331.7H313ZM223.2 175.8C245.3 175.8 256.4 167.9 256.4 167.9C253.3 164.9 245 150.6 237.5 137C230 123.4 223.3 110.6 223.3 110.6C223.3 110.6 216.6 123.4 209.1 137C201.6 150.6 193.3 164.9 190.2 167.9C190 167.9 201.1 175.8 223.2 175.8Z" fill="white"/>
<path d="M319.1 373.4C324.5 369.5 331.7 369 337.9 370.6C341.3 371.4 343.8 374 345.8 376.7C346.2 374.9 346.6 373 347 371.2C349.8 371.3 352.6 371.3 355.3 371.3C355.3 380.1 355.2 389 355.4 397.8C351.9 397.8 348.5 397.8 345.1 397.8C344.9 392.6 345.8 387 343.5 382.1C340.7 376.4 332.4 375.1 327.5 378.8C324.2 381.5 323.1 385.9 323.2 390C323.2 402.7 323.1 415.4 323.2 428C323 432 324.8 436.4 328.8 437.8C333.6 439.6 340.4 439.4 343.5 434.7C346 430.5 345.1 425.3 345.3 420.7C348.7 420.7 352.1 420.7 355.5 420.7C355.3 426.3 356.3 432.5 353.1 437.6C349.8 443.3 342.9 445.4 336.7 445.8C330.2 446.1 322.9 445.5 317.8 440.9C314.4 437.6 312.7 432.9 312.8 428.2C312.7 414.8 312.8 401.4 312.8 388.1C312.9 382.5 314.6 376.7 319.1 373.4Z" fill="white"/>
<path d="M153.5 371.3C160.9 371.3 168.3 371.3 175.7 371.3C178.4 371.3 181 372.3 183.7 372.9C193.5 370 203.8 371.8 213.8 371.3C213.9 378.2 213.8 385.1 213.9 392.1C210.6 392.1 207.2 392.1 203.9 392.1C203.9 387.5 203.9 382.8 203.8 378.2C198.8 378.2 193.9 378.2 188.9 378.2C188.9 398.2 188.9 418.2 188.9 438.2C192.5 438.2 196.2 438.2 199.8 438.2C199.8 440.5 199.8 442.8 199.8 445.1C194.9 445.2 189.8 445.6 185.1 443.7C183.7 442.9 182.3 443.8 181 444.2C176.6 445.7 171.9 445.1 167.4 445.2C167.4 442.9 167.4 440.6 167.4 438.2C171.1 438.2 174.8 438.2 178.5 438.2C178.5 418.2 178.5 398.2 178.5 378.2C173.5 378.2 168.5 378.2 163.6 378.2C163.6 382.8 163.6 387.5 163.6 392.1C160.3 392.1 156.9 392.1 153.6 392.1C153.5 385.1 153.5 378.2 153.5 371.3Z" fill="white"/>
<path d="M230.6 371.2C235 371 239.4 371.5 243.7 372.8C248 371.6 252.5 371 257 371.1C257 373.4 257 375.7 257 378.1C254.4 378.1 251.7 378.1 249.1 378.1C249.1 387.7 249.2 397.3 249.1 406.8C248.6 414.5 247.9 422.2 247.3 429.9C255.9 411.2 264.1 392.3 272.5 373.6C273.1 372.7 273.4 370.9 274.9 371.2C280.6 371.2 286.4 371.3 292.1 371.2C292.1 373.5 292.2 375.8 292.2 378.1C289.5 378.1 286.7 378.1 284 378.1C284.1 398.1 284 418.1 284 438C286.7 438 289.4 438.1 292.2 438.1C292.2 440.4 292.2 442.7 292.2 445C287.6 445.3 283.1 444.9 278.8 443.2C274.6 444.7 270.1 445.4 265.6 444.9C265.6 442.6 265.6 440.4 265.6 438.1C268.3 438.1 270.9 438.1 273.6 438.1C273.7 429.4 273.6 420.6 273.7 411.9C274 404.1 274.9 396.4 275.2 388.6C266.3 407.2 257.9 426 249.4 444.8C243.8 445.3 238.2 445 232.7 445C232.7 442.7 232.7 440.4 232.7 438.2C234.8 438.2 236.9 438.1 239 438.1C239 418.1 239 398.2 239 378.2C236.2 378.2 233.4 378.2 230.7 378.1C230.5 375.8 230.6 373.5 230.6 371.2Z" fill="white"/>
<path d="M374.501 371.3C381.901 371.3 389.301 371.2 396.701 371.3C399.501 371.2 402.001 372.3 404.601 372.9C414.401 370 424.701 371.8 434.701 371.3C434.701 378.2 434.701 385.2 434.701 392.1C431.401 392.1 428.001 392.1 424.701 392.1C424.701 387.5 424.601 382.9 424.701 378.2C419.701 378.2 414.701 378.1 409.701 378.2C409.801 398.2 409.601 418.2 409.801 438.1C413.401 438.1 417.101 438.1 420.701 438.1C420.701 440.4 420.701 442.6 420.601 444.9C415.901 445.1 411.001 445.4 406.601 443.8C404.201 442.5 401.901 444.4 399.501 444.7C395.801 445.3 392.001 445 388.201 445.1C388.201 442.8 388.201 440.5 388.201 438.1C391.901 438.1 395.601 438.1 399.301 438.1C399.301 418.1 399.201 398.1 399.301 378.2C394.301 378.2 389.301 378.2 384.401 378.2C384.401 382.8 384.401 387.5 384.401 392.1C381.101 392.1 377.701 392.1 374.301 392.1C374.501 385.1 374.401 378.2 374.501 371.3Z" fill="white"/>
<path d="M133.501 386.9C133.501 382.2 132.101 377.2 128.601 374C123.501 369.7 116.201 369.3 109.901 370.3C105.401 371.2 101.901 374.6 99.4008 378.2C99.2008 375.9 99.1008 373.5 99.0008 371.2C93.3008 371.2 87.6008 371.2 81.8008 371.2C81.8008 373.5 81.8008 375.8 81.8008 378.1C84.4008 378.1 87.1008 378.1 89.7008 378.1C89.7008 405.8 89.7008 433.6 89.7008 461.3C87.1008 461.3 84.4008 461.3 81.8008 461.3C81.8008 463.6 81.8008 465.9 81.8008 468.2C86.2008 468.4 90.6008 468.2 94.8008 466.5C99.0008 467.9 103.401 468.5 107.801 468.3C107.801 466 107.701 463.7 107.701 461.4C105.201 461.4 102.701 461.4 100.101 461.4C100.101 454 100.201 446.5 100.001 439.1C102.301 442 105.301 444.6 109.101 445.3C115.601 446.3 122.901 445.7 128.101 441.3C132.201 437.8 133.601 432.2 133.501 427C133.501 413.6 133.601 400.3 133.501 386.9ZM123.001 425C123.001 428.8 122.401 433 119.601 435.9C116.001 439.3 110.301 439.7 105.901 437.7C101.601 435.6 100.001 430.5 100.101 426C100.101 413.7 100.001 401.3 100.101 389C100.001 384 102.801 378.6 108.001 377.3C112.201 376.2 117.401 376.7 120.401 380.3C122.401 382.7 123.101 385.9 123.001 389C123.001 400.9 123.001 412.9 123.001 425Z" fill="white"/>
<path d="M60.0001 438.2C60.1001 421.4 60.0001 404.699 60.0001 387.899C60.1001 382.799 58.4001 377.499 54.5001 373.999C45.9001 367.499 31.8001 368.099 25.0001 376.899C24.9001 374.999 24.7001 373.1 24.5001 371.2C22.1001 371.2 19.7001 371.2 17.3001 371.2C17.2001 379.6 17.3001 388.099 17.3001 396.499C20.2001 396.499 23.2001 396.399 26.1001 396.499C26.1001 392.299 25.7001 388.099 26.8001 383.999C29.3001 374.699 45.0001 373.699 48.7001 382.499C50.3001 387.799 49.6001 393.399 49.6001 398.799C39.0001 401.699 27.3001 403.399 18.8001 410.899C11.5001 416.899 9.3001 428.199 13.8001 436.499C16.4001 441.399 21.5001 444.6 26.8001 445.7C33.0001 446.899 39.7001 446.399 45.2001 443.399C48.1001 441.899 49.8001 439.099 51.8001 436.599C51.8001 439.399 51.8001 442.199 51.8001 445.099C57.2001 444.999 62.6001 445.099 68.0001 444.999C68.0001 442.699 68.0001 440.399 68.0001 438.099C65.4001 438.199 62.7001 438.2 60.0001 438.2ZM48.4001 430.7C45.5001 439.5 33.1001 441.699 26.3001 436.399C21.8001 432.499 21.3001 425.699 23.2001 420.399C25.1001 414.899 30.2001 411.299 35.5001 409.599C40.2001 408.099 45.1001 406.999 49.9001 405.999C49.4001 414.099 50.9001 422.7 48.4001 430.7Z" fill="white"/>
</svg>
