<svg width="19" height="12" viewBox="0 0 19 12" fill="none" xmlns="http://www.w3.org/2000/svg">
<path fill-rule="evenodd" clip-rule="evenodd" d="M13.0381 0.175995C12.8124 -0.058662 12.4465 -0.0586623 12.2208 0.175995L12.0365 0.367691C11.8108 0.602348 11.8108 0.982803 12.0365 1.21746L15.9385 5.27463L0.978293 5.27463C0.659126 5.27463 0.40039 5.54365 0.40039 5.87551L0.40039 6.14661C0.400389 6.47846 0.659126 6.74748 0.978293 6.74748L15.9177 6.74749L12.0369 10.7825C11.8112 11.0172 11.8112 11.3977 12.0369 11.6323L12.2213 11.824C12.4469 12.0587 12.8128 12.0587 13.0385 11.824L18.2311 6.42499C18.4568 6.19034 18.4568 5.80988 18.2311 5.57522L18.0468 5.38353C18.0435 5.38012 18.0402 5.37677 18.0368 5.37346L13.0381 0.175995Z" fill="white"/>
</svg>
