<svg width="18" height="12" viewBox="0 0 18 12" fill="none" xmlns="http://www.w3.org/2000/svg">
<path fill-rule="evenodd" clip-rule="evenodd" d="M5.36228 11.824C5.58797 12.0587 5.95387 12.0587 6.17956 11.824L6.36393 11.6323C6.58961 11.3977 6.58961 11.0172 6.36393 10.7825L2.46188 6.72537L17.4221 6.72537C17.7413 6.72537 18 6.45635 18 6.12449L18 5.85339C18 5.52154 17.7413 5.25252 17.4221 5.25252L2.48272 5.25252L6.3635 1.21746C6.58918 0.9828 6.58918 0.602346 6.3635 0.367689L6.17913 0.175993C5.95345 -0.0586642 5.58754 -0.0586642 5.36185 0.175993L0.169263 5.57501C-0.0564218 5.80967 -0.0564218 6.19012 0.169263 6.42478L0.353632 6.61648C0.356908 6.61988 0.36021 6.62324 0.363544 6.62654L5.36228 11.824Z" fill="white"/>
</svg>
